<?xml version="1.0" encoding="UTF-8" standalone="no"?>
<svg
   xmlns:dc="http://purl.org/dc/elements/1.1/"
   xmlns:cc="http://creativecommons.org/ns#"
   xmlns:rdf="http://www.w3.org/1999/02/22-rdf-syntax-ns#"
   xmlns:svg="http://www.w3.org/2000/svg"
   xmlns="http://www.w3.org/2000/svg"
   xmlns:sodipodi="http://sodipodi.sourceforge.net/DTD/sodipodi-0.dtd"
   xmlns:inkscape="http://www.inkscape.org/namespaces/inkscape"
   width="11.0in"
   height="2.5in"
   viewBox="0 0 11.0 9.5"
   version="1.1"
   id="SVGRoot"
   sodipodi:docname="design.svg"
   inkscape:version="1.0.1 (3bc2e813f5, 2020-09-07)">
  <defs
     id="defs833" />
  <sodipodi:namedview
     id="base"
     pagecolor="#ffffff"
     bordercolor="#666666"
     borderopacity="1.0"
     inkscape:pageopacity="0.0"
     inkscape:pageshadow="2"
     inkscape:zoom="0.35"
     inkscape:cx="489.57647"
     inkscape:cy="520.19194"
     inkscape:document-units="in"
     inkscape:current-layer="layer1"
     inkscape:document-rotation="0"
     showgrid="false"
     inkscape:window-width="1366"
     inkscape:window-height="705"
     inkscape:window-x="-8"
     inkscape:window-y="-8"
     inkscape:window-maximized="1" />
  <metadata
     id="metadata836">
    <rdf:RDF>
      <cc:Work
         rdf:about="">
        <dc:format>image/svg+xml</dc:format>
        <dc:type
           rdf:resource="http://purl.org/dc/dcmitype/StillImage" />
        <dc:title></dc:title>
      </cc:Work>
    </rdf:RDF>
  </metadata>
  <g
     inkscape:label="Layer 1"
     inkscape:groupmode="layer"
     id="layer1">
    <ellipse
       style="fill:#c8b7b7;stroke-width:0.015625"
       id="path1421"
       cx="7.1552496"
       cy="2.9068201"
       rx="0.11574668"
       ry="0.11837728" />
    <path
       style="fill:#fddd5c;stroke:#fdfd97;stroke-width:0.0104167px;stroke-linecap:butt;stroke-linejoin:miter;stroke-opacity:1;fill-opacity:1"
       d="m 7.078962,2.7542449 c 0,0 -0.063135,-0.594517 0.2472769,-0.5708416 0,0 0.2341216,0.010522 0.1867707,0.2446457 0,0 -0.089441,0.2656911 -0.2577994,0.4182662 0,0 -0.060504,-0.1157466 -0.1670434,-0.036828 z"
       id="path1429" />
    <path
       style="fill:#fddd5c;stroke:#fdfd97;stroke-width:0.0104167px;stroke-linecap:butt;stroke-linejoin:miter;stroke-opacity:1;fill-opacity:1"
       d="m 7.2451661,2.9892123 c 0,0 0.3869048,0.1432292 0.5450149,0.1283482 0,0 0.3162178,0.02232 0.2529738,-0.251117 0,0 -0.018601,-0.2734375 -0.4315476,-0.1339286 0,0 -0.2752977,0.093006 -0.3385417,0.1469494 0,0 0.013026,0.065106 -0.027899,0.109748 z"
       id="path1451" />
    <path
       style="fill:#fddd5c;fill-opacity:1;stroke:#fdfd97;stroke-width:0.0104167px;stroke-linecap:butt;stroke-linejoin:miter;stroke-opacity:1"
       d="m 7.1236822,3.0304586 c 0,0 -0.034198,0.5155989 -0.00263,0.6839577 0,0 0.094699,0.3603918 0.3577595,0.1762494 0,0 0.2231232,-0.1350053 -0.00526,-0.5182293 0,0 -0.1858176,-0.3192452 -0.2283856,-0.3832241 0,0 -0.055716,0.0544 -0.1214839,0.041246 z"
       id="path1675" />
    <path
       style="fill:#fddd5c;stroke:#fdfd97;stroke-width:0.0104167px;stroke-linecap:butt;stroke-linejoin:miter;stroke-opacity:1;fill-opacity:1"
       d="m 7.1236845,3.0304596 c 0,0 -0.2505424,0.429363 -0.4160931,0.4833064 0,0 -0.1209098,0.070683 -0.2269366,0.02232 -0.00372,-0.0093 -0.3571429,-0.1971723 0.037202,-0.4241068 0,0 0.4148069,-0.1748512 0.5245539,-0.1674107 0,0 0.011878,0.063895 0.081274,0.085891 z"
       id="path1457" />
    <path
       style="fill:#fddd5c;stroke:#fdfd97;stroke-width:0.0104167px;stroke-linecap:butt;stroke-linejoin:miter;stroke-opacity:1;fill-opacity:1"
       d="M 7.0881667,2.8094872 C 7.0148757,2.8492575 7.0424107,2.9445685 7.0424107,2.9445685 6.9940476,2.9148066 6.577381,2.7511161 6.577381,2.7511161 6.3504467,2.6357887 6.3392857,2.4981399 6.3392857,2.4981399 6.3578869,2.2377243 6.5439009,2.2433043 6.5439009,2.2433043 v 0 c 0.2455359,0.00186 0.5350633,0.5109415 0.5350633,0.5109415 z"
       id="path1707" />
    <path
       style="fill:none;stroke:#000000;stroke-width:0.0104167px;stroke-linecap:butt;stroke-linejoin:miter;stroke-opacity:1"
       d="M 7.0763313,7.8760356 Z"
       id="path1709" />
    <path
       style="fill:#bfd75f;stroke:#bfd75f;stroke-width:0.0104167px;stroke-linecap:butt;stroke-linejoin:miter;stroke-opacity:1;fill-opacity:1"
       d="m 7.0763335,7.8760381 -0.00526,-4.7456165 0.052614,-0.099962 -0.029193,0.4926059 c 0,0 -0.00744,0.2046131 0.059523,0.3087797 0.00372,0.037202 0,0 0,0 l 0.011161,4.0476191 z"
       id="path1711" />
    <ellipse
       style="fill:#c8b7b7;stroke-width:0.015625"
       id="path1421-5"
       cx="5.5853086"
       cy="2.8748257"
       rx="0.11574668"
       ry="0.11837729" />
    <path
       style="fill:#ff6600;fill-opacity:1;stroke:#fdfd97;stroke-width:0.0104167px;stroke-linecap:butt;stroke-linejoin:miter;stroke-opacity:1"
       d="m 5.5090217,2.7222507 c 0,0 -0.063135,-0.594517 0.2472769,-0.5708416 0,0 0.2341216,0.010522 0.1867707,0.2446457 0,0 -0.089441,0.2656911 -0.2577994,0.4182662 0,0 -0.060504,-0.1157466 -0.1670434,-0.036828 z"
       id="path1429-3" />
    <path
       style="fill:#ff6600;fill-opacity:1;stroke:#fdfd97;stroke-width:0.0104167px;stroke-linecap:butt;stroke-linejoin:miter;stroke-opacity:1"
       d="m 5.6752258,2.9572181 c 0,0 0.3869048,0.1432292 0.5450149,0.1283482 0,0 0.3162178,0.02232 0.2529738,-0.251117 0,0 -0.018601,-0.2734375 -0.4315476,-0.1339286 0,0 -0.2752977,0.093006 -0.3385417,0.1469494 0,0 0.013026,0.065106 -0.027899,0.109748 z"
       id="path1451-0" />
    <path
       style="fill:#ff6600;fill-opacity:1;stroke:#fdfd97;stroke-width:0.0104167px;stroke-linecap:butt;stroke-linejoin:miter;stroke-opacity:1"
       d="m 5.5537419,2.9984644 c 0,0 -0.034198,0.515599 -0.00263,0.6839577 0,0 0.094699,0.3603918 0.3577595,0.1762494 0,0 0.2231232,-0.1350053 -0.00526,-0.5182293 0,0 -0.1858176,-0.3192452 -0.2283856,-0.3832241 0,0 -0.055716,0.0544 -0.1214839,0.041246 z"
       id="path1675-8" />
    <path
       style="fill:#ff6600;fill-opacity:1;stroke:#fdfd97;stroke-width:0.0104167px;stroke-linecap:butt;stroke-linejoin:miter;stroke-opacity:1"
       d="m 5.5537442,2.9984654 c 0,0 -0.2505424,0.429363 -0.4160931,0.4833064 0,0 -0.1209098,0.070683 -0.2269366,0.02232 -0.00372,-0.0093 -0.3571429,-0.1971723 0.037202,-0.4241068 0,0 0.4148069,-0.1748512 0.5245539,-0.1674107 0,0 0.011878,0.063895 0.081274,0.085891 z"
       id="path1457-5" />
    <path
       style="fill:#ff6600;fill-opacity:1;stroke:#fdfd97;stroke-width:0.0104167px;stroke-linecap:butt;stroke-linejoin:miter;stroke-opacity:1"
       d="M 5.5182264,2.777493 C 5.4449354,2.8172633 5.4724704,2.9125743 5.4724704,2.9125743 5.4241073,2.8828124 5.0074407,2.7191219 5.0074407,2.7191219 4.7805064,2.6037945 4.7693454,2.4661457 4.7693454,2.4661457 4.7879466,2.2057301 4.9739606,2.2113101 4.9739606,2.2113101 v 0 c 0.2455359,0.00186 0.5350633,0.5109415 0.5350633,0.5109415 z"
       id="path1707-1" />
    <path
       style="fill:none;stroke:#000000;stroke-width:0.0104167px;stroke-linecap:butt;stroke-linejoin:miter;stroke-opacity:1"
       d="M 5.506391,7.8440414 Z"
       id="path1709-6" />
    <path
       style="fill:#bfd75f;fill-opacity:1;stroke:#bfd75f;stroke-width:0.0104167px;stroke-linecap:butt;stroke-linejoin:miter;stroke-opacity:1"
       d="m 5.5063932,7.8440439 -0.00526,-4.7456165 0.052614,-0.099962 -0.029193,0.4926059 c 0,0 -0.00744,0.2046131 0.059523,0.3087797 0.00372,0.037202 0,0 0,0 l 0.011161,4.0476192 z"
       id="path1711-1" />
    <ellipse
       style="fill:#c8b7b7;stroke-width:0.015625"
       id="path1421-3"
       cx="4.1899161"
       cy="5.6028614"
       rx="0.11574668"
       ry="0.11837729" />
    <path
       style="fill:#ffb380;fill-opacity:1;stroke:#fdfd97;stroke-width:0.0104167px;stroke-linecap:butt;stroke-linejoin:miter;stroke-opacity:1"
       d="m 4.1136288,5.4502865 c 0,0 -0.063135,-0.594517 0.2472769,-0.5708416 0,0 0.2341216,0.010522 0.1867707,0.2446457 0,0 -0.089441,0.2656911 -0.2577994,0.4182662 0,0 -0.060504,-0.1157466 -0.1670434,-0.036828 z"
       id="path1429-6" />
    <path
       style="fill:#ffb380;fill-opacity:1;stroke:#fdfd97;stroke-width:0.0104167px;stroke-linecap:butt;stroke-linejoin:miter;stroke-opacity:1"
       d="m 4.2798329,5.6852539 c 0,0 0.3869048,0.1432292 0.5450149,0.1283482 0,0 0.3162178,0.02232 0.2529738,-0.251117 0,0 -0.018601,-0.2734375 -0.4315476,-0.1339286 0,0 -0.2752977,0.093006 -0.3385417,0.1469494 0,0 0.013026,0.065106 -0.027899,0.109748 z"
       id="path1451-4" />
    <path
       style="fill:#ffb380;fill-opacity:1;stroke:#fdfd97;stroke-width:0.0104167px;stroke-linecap:butt;stroke-linejoin:miter;stroke-opacity:1"
       d="m 4.158349,5.7265002 c 0,0 -0.034198,0.5155989 -0.00263,0.6839576 0,0 0.094699,0.3603918 0.3577595,0.1762494 0,0 0.2231232,-0.1350053 -0.00526,-0.5182293 0,0 -0.1858176,-0.3192451 -0.2283856,-0.383224 0,0 -0.055716,0.0544 -0.1214839,0.041246 z"
       id="path1675-1" />
    <path
       style="fill:#ffb380;fill-opacity:1;stroke:#fdfd97;stroke-width:0.0104167px;stroke-linecap:butt;stroke-linejoin:miter;stroke-opacity:1"
       d="m 4.1583513,5.7265012 c 0,0 -0.2505424,0.4293629 -0.4160931,0.4833063 0,0 -0.1209098,0.070683 -0.2269366,0.02232 -0.00372,-0.0093 -0.3571429,-0.1971723 0.037202,-0.4241067 0,0 0.4148069,-0.1748512 0.5245539,-0.1674107 0,0 0.011878,0.063895 0.081274,0.085891 z"
       id="path1457-51" />
    <path
       style="fill:#ffb380;fill-opacity:1;stroke:#fdfd97;stroke-width:0.0104167px;stroke-linecap:butt;stroke-linejoin:miter;stroke-opacity:1"
       d="M 4.1228335,5.5055288 C 4.0495425,5.5452991 4.0770775,5.6406101 4.0770775,5.6406101 4.0287144,5.6108482 3.6120478,5.4471577 3.6120478,5.4471577 3.3851135,5.3318303 3.3739525,5.1941815 3.3739525,5.1941815 3.3925537,4.9337659 3.5785677,4.9393459 3.5785677,4.9393459 v 0 c 0.2455359,0.00186 0.5350633,0.5109415 0.5350633,0.5109415 z"
       id="path1707-6" />
    <path
       style="fill:#bfd75f;stroke:none;stroke-width:0.0104167px;stroke-linecap:butt;stroke-linejoin:miter;stroke-opacity:1;fill-opacity:1"
       d="m 4.1071441,5.8184543 -0.029762,2.0647328 0.1227666,-2.6e-6 -0.00744,-1.3727678 c 0,0 -0.081846,-0.1190476 -0.055804,-0.2529762 l 0.021447,-0.5309393 z"
       id="path1794" />
    <ellipse
       style="fill:#f6d470;fill-opacity:1;stroke:none;stroke-width:0.015625;stroke-opacity:1;opacity:1"
       id="path1796"
       cx="3.4988852"
       cy="4.2243323"
       rx="0.69010437"
       ry="0.63802105" />
    <ellipse
       style="opacity:1;fill:#000000;fill-opacity:1;stroke:none;stroke-width:0.015625;stroke-opacity:1"
       id="path1800"
       cx="3.3632305"
       cy="4.0471883"
       rx="0.027621375"
       ry="0.032882586" />
    <ellipse
       style="opacity:1;fill:#000000;fill-opacity:1;stroke:none;stroke-width:0.015625;stroke-opacity:1"
       id="path1800-0"
       cx="3.5065973"
       cy="4.0537634"
       rx="0.027621375"
       ry="0.032882586" />
    <path
       style="fill:none;stroke:#000000;stroke-width:0.0104167px;stroke-linecap:butt;stroke-linejoin:miter;stroke-opacity:1"
       d="m 3.2719504,4.2336323 c 0,0 0.139509,0.1822918 0.3180805,-0.00372"
       id="path1817" />
    <ellipse
       style="opacity:1;fill:#ff8080;fill-opacity:1;stroke:none;stroke-width:0.015625;stroke-opacity:1"
       id="path1821"
       cx="3.2542791"
       cy="4.1927094"
       rx="0.045572933"
       ry="0.042782754" />
    <ellipse
       style="opacity:1;fill:#ff8080;fill-opacity:1;stroke:none;stroke-width:0.015625;stroke-opacity:1"
       id="path1821-4"
       cx="3.6123512"
       cy="4.205729"
       rx="0.045572933"
       ry="0.042782754" />
    <path
       style="fill:#eec44e;fill-opacity:1;stroke:none;stroke-width:0.0104167px;stroke-linecap:butt;stroke-linejoin:miter;stroke-opacity:1"
       d="m 4.0868729,3.9044582 c 0,0 0.6418679,-0.071026 0.7207861,0.4340501 0,0 -0.12364,0.5471646 -0.8970381,0.3893283 0,0 0.3261951,-0.2551688 0.2656912,-0.534013 0,0 -0.01315,-0.2288603 -0.089439,-0.2893654 z"
       id="path1838" />
    <path
       style="fill:#b5f4f4;stroke:none;stroke-width:0.0104167px;stroke-linecap:butt;stroke-linejoin:miter;stroke-opacity:1;fill-opacity:1;opacity:1"
       d="m 4.0868729,3.90446 c 0,0 0.1523384,0.00179 0.1523384,0.00179 C 4.3917411,3.7946429 4.6205357,3.0989583 4.6205357,3.0989583 4.7061012,2.6190479 4.5163705,2.6413699 4.5163705,2.6413699 4.1517871,2.6004473 4.017858,3.5342275 3.995537,3.5677095 c 0,0 -0.05489,-0.7056106 -0.2127262,-0.9371039 0,0 -0.1657281,-0.4024827 -0.560319,-0.3156727 0,0 -0.4577253,0.1420527 -0.1920342,0.7076329 0,0 0.1394221,0.2262321 0.2788442,0.3340869 0,0 0.2051873,0.2078179 0.247277,0.2341239 0,0 0.3371717,-0.00661 0.5302941,0.3136834 z"
       id="path1840" />
    <circle
       style="opacity:0.61290323;fill:none;fill-opacity:1;stroke:#009cb9;stroke-width:0.015625;stroke-opacity:1"
       id="path1844"
       cx="3.4421484"
       cy="2.8160641"
       r="0.040774401" />
    <circle
       style="opacity:0.612903;fill:none;fill-opacity:1;stroke:#009cb9;stroke-width:0.015625;stroke-opacity:1"
       id="path1844-8"
       cx="4.1195283"
       cy="3.8406842"
       r="0.040774401" />
    <circle
       style="opacity:0.612903;fill:none;fill-opacity:1;stroke:#009cb9;stroke-width:0.015625;stroke-opacity:1"
       id="path1844-3"
       cx="4.4483538"
       cy="3.3066714"
       r="0.040774401" />
    <circle
       style="opacity:0.612903;fill:none;fill-opacity:1;stroke:#009cb9;stroke-width:0.015625;stroke-opacity:1"
       id="path1844-0"
       cx="3.4618771"
       cy="2.4569855"
       r="0.040774401" />
    <ellipse
       style="opacity:0.612903;fill:none;fill-opacity:1;stroke:#009cb9;stroke-width:0.015625;stroke-opacity:1"
       id="path1844-7"
       cx="3.6933701"
       cy="2.7739737"
       rx="0.022360163"
       ry="0.023675464" />
    <ellipse
       style="opacity:0.612903;fill:none;fill-opacity:1;stroke:#009cb9;stroke-width:0.015625;stroke-opacity:1"
       id="path1844-7-4"
       cx="3.222492"
       cy="2.4227877"
       rx="0.022360163"
       ry="0.023675464" />
    <ellipse
       style="opacity:0.612903;fill:none;fill-opacity:1;stroke:#009cb9;stroke-width:0.015625;stroke-opacity:1"
       id="path1844-7-6"
       cx="3.1488349"
       cy="2.814748"
       rx="0.022360163"
       ry="0.023675464" />
    <ellipse
       style="opacity:0.612903;fill:none;fill-opacity:1;stroke:#009cb9;stroke-width:0.015625;stroke-opacity:1"
       id="path1844-7-1"
       cx="3.2514284"
       cy="3.0541332"
       rx="0.022360163"
       ry="0.023675464" />
    <ellipse
       style="opacity:0.612903;fill:none;fill-opacity:1;stroke:#009cb9;stroke-width:0.015625;stroke-opacity:1"
       id="path1844-7-7"
       cx="3.7486129"
       cy="3.1041145"
       rx="0.022360163"
       ry="0.023675464" />
    <ellipse
       style="opacity:0.612903;fill:none;fill-opacity:1;stroke:#009cb9;stroke-width:0.015625;stroke-opacity:1"
       id="path1844-7-0"
       cx="3.4855525"
       cy="3.3224547"
       rx="0.022360163"
       ry="0.023675464" />
    <ellipse
       style="opacity:0.612903;fill:none;fill-opacity:1;stroke:#009cb9;stroke-width:0.015625;stroke-opacity:1"
       id="path1844-7-9"
       cx="3.8170087"
       cy="3.3776977"
       rx="0.022360163"
       ry="0.023675464" />
    <ellipse
       style="opacity:0.612903;fill:none;fill-opacity:1;stroke:#009cb9;stroke-width:0.015625;stroke-opacity:1"
       id="path1844-7-67"
       cx="4.4641376"
       cy="2.8094866"
       rx="0.022360163"
       ry="0.023675464" />
    <ellipse
       style="opacity:0.612903;fill:none;fill-opacity:1;stroke:#009cb9;stroke-width:0.015625;stroke-opacity:1"
       id="path1844-7-04"
       cx="4.5009661"
       cy="3.0409801"
       rx="0.022360163"
       ry="0.023675464" />
    <ellipse
       style="opacity:0.612903;fill:none;fill-opacity:1;stroke:#009cb9;stroke-width:0.015625;stroke-opacity:1"
       id="path1844-7-69"
       cx="4.2773647"
       cy="3.0225658"
       rx="0.022360163"
       ry="0.023675464" />
    <ellipse
       style="opacity:0.612903;fill:none;fill-opacity:1;stroke:#009cb9;stroke-width:0.015625;stroke-opacity:1"
       id="path1844-7-01"
       cx="4.1958156"
       cy="3.2672122"
       rx="0.022360163"
       ry="0.023675464" />
    <ellipse
       style="opacity:0.612903;fill:none;fill-opacity:1;stroke:#009cb9;stroke-width:0.015625;stroke-opacity:1"
       id="path1844-7-98"
       cx="4.2457972"
       cy="3.5855155"
       rx="0.022360163"
       ry="0.023675464" />
    <path
       style="fill:#f4d470;stroke:none;stroke-width:0.0104167px;stroke-linecap:butt;stroke-linejoin:miter;stroke-opacity:1;fill-opacity:1;opacity:1"
       d="m 4.773067,4.1852692 c 0,0 0.7589288,-0.070685 1.4062505,0.2306548 0,0 0.5580337,0.2194927 0.5357123,0.4836296 0,0 -0.014881,0.1004464 -0.5096726,-0.1674107 0,0 -0.483631,-0.2157738 -0.8035715,-0.234375 0,0 -0.5617559,-0.040923 -0.6324405,-0.022322 0,0 0.1339316,-0.096723 0.00372,-0.2901767 z"
       id="path1965" />
    <path
       style="fill:#efc957;stroke:none;stroke-width:0.0104167px;stroke-linecap:butt;stroke-linejoin:miter;stroke-opacity:1;fill-opacity:1"
       d="m 5.115329,4.1964299 -0.00372,0.2864584 0.074403,-1.4e-6 c 0,0 -0.029762,-0.2566964 -0.00372,-0.2864583 z"
       id="path1967" />
    <path
       style="fill:#efc957;stroke:none;stroke-width:0.0104167px;stroke-linecap:butt;stroke-linejoin:miter;stroke-opacity:1;fill-opacity:1"
       d="m 5.5877994,4.2373525 0.00372,0.2976192 0.066964,0.018601 -0.00372,-0.3162204 z"
       id="path1969" />
    <path
       style="fill:#efc957;stroke:none;stroke-width:0.0104167px;stroke-linecap:butt;stroke-linejoin:miter;stroke-opacity:1;fill-opacity:1"
       d="m 6.0937501,4.3787206 c -0.033482,0.018601 -0.014881,0.2976191 -0.014881,0.2976191 l -0.074403,-0.033481 c -0.00744,-0.044643 0.014881,-0.2901788 0.014881,-0.2901788 z"
       id="path1971" />
    <path
       style="fill:#efc957;stroke:none;stroke-width:0.0104167px;stroke-linecap:butt;stroke-linejoin:miter;stroke-opacity:1;fill-opacity:1"
       d="m 6.4583354,4.5758943 0.011161,0.2752978 0.081845,0.033482 c 0,0 -0.029762,-0.2492561 -0.014881,-0.2752977 z"
       id="path1973" />
  </g>
</svg>
