<?xml version="1.0" encoding="UTF-8" standalone="no"?>
<svg
   xmlns:dc="http://purl.org/dc/elements/1.1/"
   xmlns:cc="http://creativecommons.org/ns#"
   xmlns:rdf="http://www.w3.org/1999/02/22-rdf-syntax-ns#"
   xmlns:svg="http://www.w3.org/2000/svg"
   xmlns="http://www.w3.org/2000/svg"
   xmlns:sodipodi="http://sodipodi.sourceforge.net/DTD/sodipodi-0.dtd"
   xmlns:inkscape="http://www.inkscape.org/namespaces/inkscape"
   width="6.0in"
   height="3.1in"
   viewBox="0 0 20.0 5.5"
   version="1.1"
   id="SVGRoot"
   sodipodi:docname="logo.svg"
   inkscape:version="1.0.1 (3bc2e813f5, 2020-09-07)">
  <defs
     id="defs10" />
  <sodipodi:namedview
     id="base"
     pagecolor="#ffffff"
     bordercolor="#666666"
     borderopacity="1.0"
     inkscape:pageopacity="0.0"
     inkscape:pageshadow="2"
     inkscape:zoom="0.35"
     inkscape:cx="417.07442"
     inkscape:cy="393.21611"
     inkscape:document-units="in"
     inkscape:current-layer="layer1"
     inkscape:document-rotation="0"
     showgrid="false"
     inkscape:window-width="1366"
     inkscape:window-height="705"
     inkscape:window-x="-8"
     inkscape:window-y="-8"
     inkscape:window-maximized="1" />
  <metadata
     id="metadata13">
    <rdf:RDF>
      <cc:Work
         rdf:about="">
        <dc:format>image/svg+xml</dc:format>
        <dc:type
           rdf:resource="http://purl.org/dc/dcmitype/StillImage" />
        <dc:title></dc:title>
      </cc:Work>
    </rdf:RDF>
  </metadata>
  <g
     inkscape:label="Layer 1"
     inkscape:groupmode="layer"
     id="layer1">
    <circle
       style="fill:#f9f9f9;stroke-width:0.05104167;stroke-miterlimit:4;stroke-dasharray:none;stroke:#d3d3d3;stroke-opacity:1"
       id="path41"
       cx="4.2336321"
       cy="-4.382442"
       r="0.55803591"
       transform="scale(1,-1)" />
    <path
       style="fill:#ff2a2a;stroke:#d3d3d3;stroke-width:0.05208333;stroke-linecap:butt;stroke-linejoin:miter;stroke-opacity:1;stroke-miterlimit:4;stroke-dasharray:none"
       d="m 4.4047633,3.8095251 c 0,0 0.2232143,-0.5654765 1.2202385,-0.5208335 0,0 0.089284,0.8333322 -0.7886923,1.1309513 0,0 -0.04464,-0.5208308 -0.4315462,-0.6101178 z"
       id="path874" />
    <path
       style="fill:#ff00ff;stroke:#d3d3d3;stroke-width:0.04479167;stroke-linecap:butt;stroke-linejoin:miter;stroke-opacity:1;stroke-miterlimit:4;stroke-dasharray:none"
       d="m 5.2927801,4.1931867 c 0,0 0.5734722,0.2683218 0.6734352,0.6103007 0,0 -0.6629144,0.5471644 -1.3679167,0.052611 0,0 0.2392673,-0.2468264 0.2380109,-0.4364555 z"
       id="path888" />
    <path
       style="fill:#ff6600;stroke:#d3d3d3;stroke-width:0.02604167;stroke-linecap:butt;stroke-linejoin:miter;stroke-opacity:1;stroke-miterlimit:4;stroke-dasharray:none"
       d="m 4.6982631,3.4539862 c 0,0 -0.076288,-0.5524274 -0.4498337,-0.8049656 0,0 -0.3735474,0.3077801 -0.4366819,0.8391624 0,0 0.2683218,0.2288627 0.2893666,0.3209339 0,0 0.1837709,-0.02549 0.3036492,4.082e-4 0,0 0.046224,-0.1898097 0.2934998,-0.3555389 z"
       id="path890" />
    <path
       style="fill:#ffff00;stroke:#d3d3d3;stroke-width:0.03958333;stroke-linecap:butt;stroke-linejoin:miter;stroke-opacity:1;stroke-miterlimit:4;stroke-dasharray:none"
       d="m 4.1011154,3.8091181 c 0,0 -0.4404,-0.6952778 -1.2328109,-0.4906646 0,0 0.089285,0.658481 0.3943443,0.8668144 0,0 0.2455357,-0.089286 0.4352679,-0.026042 0,0 0.084671,-0.2686683 0.4031987,-0.3501078 z"
       id="path892" />
    <path
       style="fill:#00ff00;stroke:#d3d3d3;stroke-width:0.03229167;stroke-linecap:butt;stroke-linejoin:miter;stroke-opacity:1;stroke-miterlimit:4;stroke-dasharray:none"
       d="m 3.6979178,4.1592273 c 0,0 -0.6733633,-0.1785712 -1.1681551,0.6398814 0,0 0.4687492,0.3199389 0.9114575,0.2529746 0,0 0.1785715,-0.3236607 0.2901786,-0.375744 0,0 -0.1488073,-0.2790157 -0.033481,-0.517112 z"
       id="path896" />
    <path
       style="fill:#0000ff;stroke:#d3d3d3;stroke-width:0.04270833;stroke-linecap:butt;stroke-linejoin:miter;stroke-opacity:1;stroke-miterlimit:4;stroke-dasharray:none"
       d="m 3.7313999,4.6763408 c 0,0 -0.5840774,0.5245538 -0.2380952,1.3244052 0,0 0.5691953,-0.1711329 0.7626477,-0.5617579 0,0 -0.1674107,-0.3831845 -0.1153274,-0.4836309 0,0 -0.34598,-0.1078839 -0.4092251,-0.2790164 z"
       id="path898" />
    <path
       style="fill:#800080;stroke:#d3d3d3;stroke-width:0.03541667;stroke-linecap:butt;stroke-linejoin:miter;stroke-opacity:1;stroke-miterlimit:4;stroke-dasharray:none"
       d="m 4.1406263,4.9553588 c 0,0 -0.059524,0.7403276 0.8668158,1.0491074 0,0 0.2455341,-0.5133948 0.048362,-0.9375019 0,0 -0.3978974,-0.072029 -0.4575055,-0.2108659 0,0 -0.301421,0.1550656 -0.4576723,0.09926 z"
       id="path904" />
					
  </g>
</svg>
